<?xml version="1.0" standalone="no"?>
<!DOCTYPE svg PUBLIC "-//W3C//DTD SVG 20010904//EN"
 "http://www.w3.org/TR/2001/REC-SVG-20010904/DTD/svg10.dtd">
<svg version="1.0" xmlns="http://www.w3.org/2000/svg"
 width="541.000000pt" height="305.000000pt" viewBox="0 0 541.000000 305.000000"
 preserveAspectRatio="xMidYMid meet">

<g transform="translate(0.000000,305.000000) scale(0.100000,-0.100000)"
fill="#ffffff" stroke="none">
<path d="M2040 2335 c-249 -44 -443 -144 -593 -306 -146 -157 -229 -350 -256
-593 -42 -374 42 -675 245 -880 163 -164 398 -277 771 -371 76 -19 149 -35
163 -35 42 0 188 46 337 105 592 238 803 577 742 1191 -6 60 -19 157 -28 217
l-17 107 45 0 c53 0 116 27 148 61 26 28 53 89 53 119 0 44 108 5 160 -58 56
-68 63 -111 55 -326 -8 -213 0 -265 65 -451 36 -100 129 -305 140 -305 12 0
80 125 111 204 65 169 88 323 70 473 -25 201 -105 362 -244 489 -106 95 -253
164 -352 164 l-44 0 15 -35 c22 -54 17 -73 -9 -34 -69 102 -210 116 -297 29
-67 -67 -72 -135 -35 -460 22 -184 20 -369 -5 -464 -71 -280 -334 -485 -720
-561 -131 -26 -381 -31 -518 -11 -338 50 -547 177 -593 359 -30 122 80 221
225 202 28 -4 96 -23 151 -42 55 -19 144 -50 197 -69 130 -45 246 -58 379 -44
114 12 275 61 368 110 185 99 323 260 367 431 22 81 22 234 1 312 -58 216
-295 389 -632 462 -103 23 -360 28 -465 10z"/>
<path d="M3760 2236 c-36 -8 -81 -21 -100 -29 l-35 -15 43 -1 c65 -1 188 -29
273 -62 163 -63 230 -136 379 -414 51 -96 106 -193 123 -215 56 -77 196 -153
294 -162 l38 -3 -3 40 c-7 77 -44 231 -79 320 -54 141 -116 239 -212 336 -97
96 -192 152 -321 189 -96 28 -305 36 -400 16z"/>
<path d="M2945 1131 c-22 -10 -107 -69 -190 -131 -82 -62 -181 -134 -218 -159
-81 -53 -76 -59 48 -60 160 -1 305 33 393 93 98 67 143 196 87 251 -29 30 -65
32 -120 6z"/>
<path d="M1582 1037 c-44 -46 -23 -127 50 -194 59 -53 94 -71 176 -89 103 -21
316 -15 391 12 9 3 -51 41 -140 90 -85 47 -185 105 -224 129 -132 81 -211 97
-253 52z"/>
</g>
</svg>
